<svg id="visual" viewBox="0 0 900 600" width="900" height="600" xmlns="http://www.w3.org/2000/svg" xmlns:xlink="http://www.w3.org/1999/xlink" version="1.1"><path d="M0 425L12.5 421.3C25 417.7 50 410.3 75 412.8C100 415.3 125 427.7 150 426C175 424.3 200 408.7 225 402.8C250 397 275 401 300 397.7C325 394.3 350 383.7 375 390.5C400 397.3 425 421.7 450 434.8C475 448 500 450 525 449.8C550 449.7 575 447.3 600 443.7C625 440 650 435 675 431.8C700 428.7 725 427.3 750 429.2C775 431 800 436 825 431.3C850 426.7 875 412.3 887.5 405.2L900 398L900 601L887.5 601C875 601 850 601 825 601C800 601 775 601 750 601C725 601 700 601 675 601C650 601 625 601 600 601C575 601 550 601 525 601C500 601 475 601 450 601C425 601 400 601 375 601C350 601 325 601 300 601C275 601 250 601 225 601C200 601 175 601 150 601C125 601 100 601 75 601C50 601 25 601 12.5 601L0 601Z" fill="#fa7268"></path><path d="M0 487L12.5 479C25 471 50 455 75 453C100 451 125 463 150 461.2C175 459.3 200 443.7 225 443.2C250 442.7 275 457.3 300 454C325 450.7 350 429.3 375 419.2C400 409 425 410 450 411.8C475 413.7 500 416.3 525 425.7C550 435 575 451 600 449.5C625 448 650 429 675 427.3C700 425.7 725 441.3 750 453C775 464.7 800 472.3 825 475C850 477.7 875 475.3 887.5 474.2L900 473L900 601L887.5 601C875 601 850 601 825 601C800 601 775 601 750 601C725 601 700 601 675 601C650 601 625 601 600 601C575 601 550 601 525 601C500 601 475 601 450 601C425 601 400 601 375 601C350 601 325 601 300 601C275 601 250 601 225 601C200 601 175 601 150 601C125 601 100 601 75 601C50 601 25 601 12.5 601L0 601Z" fill="#eb5967"></path><path d="M0 480L12.5 479C25 478 50 476 75 481C100 486 125 498 150 497.2C175 496.3 200 482.7 225 475.5C250 468.3 275 467.7 300 476.3C325 485 350 503 375 503.2C400 503.3 425 485.7 450 479.8C475 474 500 480 525 488.5C550 497 575 508 600 509.8C625 511.7 650 504.3 675 500.7C700 497 725 497 750 491.5C775 486 800 475 825 468.3C850 461.7 875 459.3 887.5 458.2L900 457L900 601L887.5 601C875 601 850 601 825 601C800 601 775 601 750 601C725 601 700 601 675 601C650 601 625 601 600 601C575 601 550 601 525 601C500 601 475 601 450 601C425 601 400 601 375 601C350 601 325 601 300 601C275 601 250 601 225 601C200 601 175 601 150 601C125 601 100 601 75 601C50 601 25 601 12.5 601L0 601Z" fill="#da3f67"></path><path d="M0 531L12.5 532C25 533 50 535 75 534.7C100 534.3 125 531.7 150 536C175 540.3 200 551.7 225 557.7C250 563.7 275 564.3 300 564.5C325 564.7 350 564.3 375 559.2C400 554 425 544 450 539.2C475 534.3 500 534.7 525 535.5C550 536.3 575 537.7 600 533.8C625 530 650 521 675 523.7C700 526.3 725 540.7 750 546.3C775 552 800 549 825 547C850 545 875 544 887.5 543.5L900 543L900 601L887.5 601C875 601 850 601 825 601C800 601 775 601 750 601C725 601 700 601 675 601C650 601 625 601 600 601C575 601 550 601 525 601C500 601 475 601 450 601C425 601 400 601 375 601C350 601 325 601 300 601C275 601 250 601 225 601C200 601 175 601 150 601C125 601 100 601 75 601C50 601 25 601 12.5 601L0 601Z" fill="#c62368"></path></svg>