<!--?xml version="1.0" standalone="no"?-->
              <svg id="sw-js-blob-svg" viewBox="0 0 100 100" xmlns="http://www.w3.org/2000/svg" version="1.1">
                    <defs> 
                        <linearGradient id="sw-gradient" x1="0" x2="1" y1="1" y2="0">
                            <stop id="stop1" stop-color="rgba(255, 255, 255, 1)" offset="0%"></stop>
                            <stop id="stop2" stop-color="rgba(255, 255, 255, 1)" offset="100%"></stop>
                        </linearGradient>
                    </defs>
                <path fill="url(#sw-gradient)" d="M23.3,-29.2C28.4,-23.6,29.3,-14.4,29.9,-6C30.6,2.5,31,10.3,28.3,17.7C25.6,25,19.9,31.9,12.4,35.1C4.9,38.3,-4.3,37.8,-11.3,34C-18.2,30.2,-22.9,23,-28.5,15.4C-34.2,7.8,-40.9,-0.3,-40.5,-8C-40.2,-15.6,-32.7,-22.9,-24.8,-28C-16.9,-33.1,-8.4,-36.1,0.4,-36.5C9.2,-37,18.3,-34.8,23.3,-29.2Z" width="100%" height="100%" transform="translate(50 50)" stroke-width="0" style="transition: all 0.3s ease 0s;" stroke="url(#sw-gradient)"></path>
              </svg>